<?xml version="1.0" standalone="no"?>
<!DOCTYPE svg PUBLIC "-//W3C//DTD SVG 20010904//EN"
 "http://www.w3.org/TR/2001/REC-SVG-20010904/DTD/svg10.dtd">
<svg version="1.0" xmlns="http://www.w3.org/2000/svg"
 width="150.000000pt" height="150.000000pt" viewBox="0 0 150.000000 150.000000"
 preserveAspectRatio="xMidYMid meet">
<metadata>
Created by potrace 1.14, written by Peter Selinger 2001-2017
</metadata>
<g transform="translate(0.000000,150.000000) scale(0.100000,-0.100000)"
fill="#000000" stroke="none">
<path d="M625 1314 c-180 -37 -331 -150 -408 -307 -44 -88 -49 -103 -62 -187
-25 -152 19 -316 118 -445 71 -93 221 -187 344 -215 198 -45 416 27 562 186
59 65 121 169 121 204 0 10 4 21 9 24 8 5 25 116 24 161 -4 280 -174 494 -460
579 -41 13 -188 13 -248 0z m268 -30 c65 -17 137 -50 149 -68 4 -6 8 -7 8 -3
0 10 16 -3 85 -68 48 -46 135 -165 119 -165 -4 0 -1 -6 5 -13 23 -29 52 -148
54 -222 0 -15 -13 -128 -17 -145 -30 -137 -166 -304 -300 -368 -38 -19 -77
-35 -86 -37 -10 -2 -33 -8 -52 -13 -53 -15 -225 -7 -283 13 -93 32 -154 68
-220 129 -73 69 -124 148 -156 245 -32 92 -32 238 -2 336 43 136 146 261 275
333 37 21 152 58 198 64 52 6 164 -2 223 -18z"/>
<path d="M750 1040 c-6 -4 -36 -8 -67 -9 -86 -3 -148 -41 -173 -106 -12 -30
-16 -314 -6 -364 13 -63 86 -119 162 -127 181 -18 220 -11 277 50 60 65 60 96
0 186 l-46 70 21 23 c12 13 22 29 22 35 0 7 3 12 8 12 4 0 16 16 26 35 47 86
-45 191 -174 199 -21 2 -44 0 -50 -4z m138 -44 c25 -13 79 -66 67 -66 -3 0 -1
-9 5 -20 12 -22 2 -44 -54 -118 l-24 -34 -51 74 c-28 40 -57 81 -64 92 -6 10
-20 29 -29 41 -23 30 -23 34 5 44 30 12 111 5 145 -13z m-250 -13 c-42 -49
-47 -73 -45 -259 l2 -181 29 -37 c15 -20 26 -40 23 -43 -10 -9 -87 40 -104 66
-14 22 -17 54 -18 191 -1 91 1 174 3 186 7 41 67 93 106 94 17 0 18 -2 4 -17z
m146 -126 c42 -62 76 -118 76 -124 0 -12 -53 -94 -77 -120 -6 -7 -15 -22 -18
-33 -3 -11 -10 -20 -14 -20 -4 0 -17 -18 -30 -40 -25 -45 -39 -49 -64 -19 -33
38 -39 73 -40 233 -2 166 3 196 43 236 28 28 30 26 124 -113z m145 -212 c40
-60 42 -67 31 -94 -14 -35 -56 -77 -90 -89 -35 -12 -122 -14 -139 -3 -11 7
-10 15 9 45 12 20 27 42 33 49 7 7 19 24 27 37 45 75 76 119 81 120 3 0 25
-29 48 -65z"/>
</g>
</svg>
